<svg width="70" height="69" viewBox="0 0 70 69" fill="none" xmlns="http://www.w3.org/2000/svg">
<path fill-rule="evenodd" clip-rule="evenodd" d="M36.75 12C24.0664 12 13.75 22.3147 13.75 35C13.75 47.6819 24.0664 58 36.75 58C49.4319 58 59.75 47.6819 59.75 35C59.75 22.3147 49.4319 12 36.75 12M43.7024 30.3075C43.158 29.7631 42.2751 29.7631 41.7306 30.3075L38.6632 33.3766C38.9346 31.6377 39.5712 29.5872 41.022 28.1364C43.1429 26.0138 46.5906 25.6335 48.42 25.5916C48.3815 27.421 48.0062 30.8553 45.8719 32.9863C44.4295 34.4287 42.3806 35.067 40.64 35.3418L43.7024 32.2777C44.2469 31.7332 44.2469 30.852 43.7024 30.3075M29.95 42.713L33.9657 44.3364C32.2535 44.7636 30.1192 44.9763 28.2295 44.2141C25.4468 43.09 23.7498 40.0677 22.9959 38.3975C24.6946 37.7173 28.0017 36.7222 30.7994 37.8547C32.6891 38.6169 34.0762 40.252 35.0094 41.7497L30.9937 40.1297C30.2817 39.8416 29.4692 40.1833 29.1811 40.8987C28.8929 41.614 29.2363 42.4249 29.95 42.713M38.7503 55.1118C39.2948 52.3844 40.0654 46.397 38.6598 38.3187C40.9499 38.2534 45.0795 37.7223 47.8437 34.9581C51.7606 31.043 51.1943 24.382 51.1692 24.1006C51.1089 23.4305 50.5778 22.9011 49.9094 22.8408C49.6279 22.814 42.967 22.2511 39.0502 26.1645C37.8858 27.3289 37.1186 28.7361 36.6143 30.1467C36.3831 29.4431 36.1419 28.7395 35.8856 28.0425C35.6209 27.3188 34.8201 26.9469 34.098 27.2133C33.376 27.4763 33.0041 28.2771 33.2688 28.9991C34.2337 31.6394 35.006 34.3182 35.5605 36.9685C35.646 37.3672 35.723 37.7609 35.7934 38.1479C34.7531 36.9819 33.448 35.9147 31.8448 35.2697C26.71 33.1907 20.7996 36.3168 20.5483 36.4491C19.9569 36.7691 19.6772 37.461 19.8815 38.1043C19.967 38.3707 22.051 44.7217 27.1858 46.7974C28.459 47.3134 29.7808 47.506 31.0507 47.506C33.2319 47.506 35.2623 46.9347 36.6478 46.4187C36.7282 50.7745 36.1754 53.862 35.8772 55.1905C25.1336 54.7332 16.5377 45.8525 16.5377 35C16.5377 23.8543 25.606 14.786 36.75 14.786C47.894 14.786 56.9606 23.8543 56.9606 35C56.9606 45.4705 48.9612 54.1066 38.7503 55.1118" fill="#003B49"/>
<mask id="mask0" mask-type="alpha" maskUnits="userSpaceOnUse" x="0" y="0" width="70" height="69">
<path fill-rule="evenodd" clip-rule="evenodd" d="M0.751343 0.383057H69.366V68.8889H0.751343V0.383057Z" fill="white"/>
</mask>
<g mask="url(#mask0)">
<path fill-rule="evenodd" clip-rule="evenodd" d="M67.9658 29.0432H63.9318C63.6692 27.6923 63.3125 26.3599 62.8665 25.0628L66.3569 23.0516C67.0267 22.6634 67.2572 21.8082 66.8719 21.1428L62.6713 13.8776C62.2842 13.2072 61.4259 12.977 60.7561 13.3651L57.2556 15.3814C56.3552 14.348 55.3791 13.3735 54.3425 12.4729L56.362 8.97975C56.5488 8.65547 56.5993 8.27742 56.5017 7.91785C56.4057 7.55997 56.1718 7.25417 55.8504 7.06934L48.5751 2.87384C48.252 2.68734 47.8716 2.63861 47.5131 2.73606C47.153 2.83016 46.8467 3.06707 46.6616 3.38463L44.6471 6.87444C43.3445 6.42582 42.01 6.06961 40.6603 5.81086V1.78002C40.6603 1.0088 40.0309 0.38208 39.2584 0.38208H30.8572C30.0831 0.38208 29.4553 1.0088 29.4553 1.78002V5.81086C28.104 6.06793 26.7711 6.42582 25.4719 6.87444L23.4557 3.38463C23.2689 3.06707 22.9643 2.83016 22.6041 2.73606C22.2457 2.63861 21.8637 2.68734 21.5422 2.87384L14.2652 7.06934C13.9438 7.25249 13.7099 7.55997 13.614 7.91785C13.5163 8.27742 13.5685 8.65547 13.7536 8.97807L15.7731 12.4712C14.7365 13.3735 13.7604 14.348 12.86 15.3814L9.35951 13.3651C8.68971 12.977 7.83646 13.2072 7.44603 13.8776L3.24544 21.1412C2.86005 21.8082 3.08893 22.6634 3.76042 23.0516L7.25081 25.0628C6.80315 26.3599 6.44637 27.6923 6.18551 29.0432H2.15154C1.37739 29.0432 0.751343 29.6666 0.751343 30.4412V38.8288C0.751343 39.6 1.37739 40.2251 2.15154 40.2251H6.18383C6.44468 41.5776 6.80315 42.9084 7.24912 44.2055L3.76042 46.2184C3.08893 46.6048 2.85837 47.4618 3.24544 48.1288L7.44603 55.3941C7.83478 56.0628 8.68971 56.2913 9.35951 55.9048L12.86 53.8869C13.7604 54.9236 14.7365 55.8964 15.7731 56.7987L13.752 60.2936C13.5685 60.6128 13.5163 60.9959 13.614 61.3521C13.7099 61.71 13.9438 62.0175 14.2652 62.2023L21.5422 66.3944C21.8637 66.5809 22.2457 66.6313 22.6041 66.5339C22.9643 66.4381 23.2689 66.2029 23.4557 65.8837L25.4719 62.3972C26.7711 62.8425 28.104 63.202 29.4553 63.4608V67.4899C29.4553 68.2645 30.0831 68.8896 30.8572 68.8896H39.2584C40.0309 68.8896 40.6586 68.2645 40.6586 67.4899V63.4625C42.01 63.202 43.3429 62.8425 44.6471 62.3989L46.6616 65.8837C46.845 66.2046 47.153 66.4398 47.5131 66.5356C47.8699 66.6313 48.252 66.5809 48.5751 66.3944L55.8487 62.2023C56.1701 62.0175 56.4057 61.71 56.5017 61.3521C56.5976 60.9959 56.5471 60.6128 56.362 60.2936L54.3408 56.7987C55.3791 55.8981 56.3552 54.9236 57.2556 53.8869L60.7544 55.9048C61.4259 56.2913 62.2808 56.0628 62.6713 55.3957L66.8719 48.1288C67.2556 47.4618 67.0267 46.6048 66.3552 46.2201L62.8665 44.2055C63.3108 42.9084 63.6692 41.5776 63.9318 40.2251H67.9658C68.7382 40.2251 69.366 39.6 69.366 38.8288V30.4428C69.366 29.6666 68.7382 29.0432 67.9658 29.0432V29.0432ZM66.5639 37.4292H62.7504C62.0587 37.4292 61.4697 37.9383 61.3653 38.6205C61.0725 40.5695 60.5609 42.4866 59.8406 44.3197C59.5881 44.9633 59.844 45.6925 60.4431 46.0386L63.7433 47.9423L60.9429 52.7847L57.636 50.8776C57.0385 50.5332 56.2761 50.6777 55.8436 51.2154C54.61 52.7528 53.2048 54.1574 51.6649 55.3873C51.1247 55.8192 50.9817 56.5786 51.3267 57.1784L53.2368 60.4801L48.3849 63.276L46.4815 59.9794C46.1331 59.3829 45.4028 59.1241 44.7565 59.3795C42.9238 60.0936 41.0036 60.6061 39.0497 60.9018C38.3664 61.0043 37.8582 61.5907 37.8582 62.2829V66.092H32.2557V62.2813C32.2557 61.5907 31.7492 61.0043 31.0659 60.9001C29.1137 60.6061 27.1918 60.0936 25.3591 59.3779C24.7145 59.1241 23.9808 59.3829 23.6341 59.9794L21.729 63.276L16.8805 60.4801L18.7873 57.1768C19.1323 56.5786 18.9909 55.8192 18.4507 55.3873C16.9108 54.1574 15.5039 52.7528 14.272 51.2137C13.8411 50.6777 13.0771 50.5332 12.478 50.8776L9.17103 52.7847L6.37064 47.9423L9.67086 46.0386C10.27 45.6925 10.5275 44.9633 10.275 44.3197C9.55473 42.4866 9.04312 40.5695 8.74861 38.6205C8.64595 37.9383 8.05861 37.4292 7.36525 37.4292H3.55173V31.8391H7.36525C8.05861 31.8391 8.64595 31.3317 8.74861 30.6478C9.04312 28.7021 9.55473 26.7816 10.275 24.9502C10.5275 24.3084 10.27 23.5758 9.67086 23.2313L6.37064 21.326L9.17103 16.4836L12.478 18.3906C13.0771 18.7351 13.8411 18.5923 14.272 18.0546C15.5039 16.5172 16.9108 15.1142 18.4507 13.8843C18.9909 13.4525 19.1323 12.6913 18.7873 12.0915L16.8805 8.78989L21.729 5.994L23.6341 9.28891C23.9808 9.89043 24.7145 10.1458 25.3591 9.89379C27.1918 9.17634 29.112 8.66051 31.0659 8.36815C31.7492 8.26902 32.2557 7.67758 32.2557 6.98869V3.17628H37.8582V6.98869C37.8582 7.67758 38.3664 8.26902 39.0497 8.36815C41.0036 8.66051 42.9238 9.17634 44.7565 9.89379C45.4028 10.1458 46.1331 9.89043 46.4815 9.28891L48.3849 5.994L53.2368 8.78989L51.3267 12.0915C50.9817 12.6913 51.1247 13.4525 51.6649 13.8843C53.2048 15.1159 54.61 16.5172 55.8436 18.0546C56.2761 18.5923 57.0385 18.7351 57.636 18.3906L60.9429 16.4836L63.7433 21.326L60.4431 23.2313C59.8456 23.5758 59.5881 24.3084 59.8406 24.9502C60.5609 26.7816 61.0725 28.7021 61.3653 30.6495C61.4697 31.3317 62.0587 31.8391 62.7504 31.8391H66.5639V37.4292Z" fill="#003B49"/>
</g>
<path fill-rule="evenodd" clip-rule="evenodd" d="M33.478 21.7748C33.1347 21.0945 32.2773 20.8079 31.5631 21.1357C30.8489 21.4667 30.5488 22.287 30.8921 22.9689L31.018 23.2176C31.2664 23.7118 31.7788 24 32.3135 24C32.5223 24 32.7327 23.9555 32.9346 23.8649C33.6505 23.5372 33.9506 22.7202 33.6091 22.0366L33.478 21.7748Z" fill="#003B49"/>
</svg>
