<svg width="66" height="65" viewBox="0 0 66 65" fill="none" xmlns="http://www.w3.org/2000/svg">
<mask id="mask0" mask-type="alpha" maskUnits="userSpaceOnUse" x="0" y="31" width="42" height="34">
<path fill-rule="evenodd" clip-rule="evenodd" d="M0.00012207 31.3218H41.4765V65H0.00012207V31.3218Z" fill="white"/>
</mask>
<g mask="url(#mask0)">
<path fill-rule="evenodd" clip-rule="evenodd" d="M36.608 31.3218H4.86765C2.18412 31.3218 0.00012207 33.5085 0.00012207 36.1963V53.2894C0.00012207 55.9771 2.18412 58.163 4.86765 58.163C5.56736 58.163 6.13212 57.5966 6.13212 56.8969C6.13212 56.1981 5.56736 55.6309 4.86765 55.6309C3.57816 55.6309 2.52906 54.5805 2.52906 53.2894V36.1963C2.52906 34.9052 3.57816 33.8548 4.86765 33.8548H36.608C37.8975 33.8548 38.9475 34.9052 38.9475 36.1963V53.2894C38.9475 54.5805 37.8975 55.6309 36.608 55.6309H27.5539C27.2939 55.6309 27.0401 55.7114 26.8274 55.8608L19.0905 61.2999L19.0878 56.896C19.0869 56.1973 18.5212 55.6309 17.8233 55.6309H14.5831C13.8842 55.6309 13.3177 56.1981 13.3177 56.8969C13.3177 57.5957 13.8842 58.163 14.5831 58.163H16.5588L16.5624 63.7354C16.5633 64.2069 16.826 64.64 17.2451 64.8574C17.4283 64.9531 17.6285 65.0006 17.8269 65.0006C18.0834 65.0006 18.338 64.9227 18.5543 64.7706L27.9534 58.163H36.608C39.2925 58.163 41.4765 55.9771 41.4765 53.2894V36.1963C41.4765 33.5085 39.2925 31.3218 36.608 31.3218" fill="#003B49"/>
</g>
<path fill-rule="evenodd" clip-rule="evenodd" d="M56.5601 26.4378C56.2813 26.158 55.8943 26 55.5 26C55.1057 26 54.7187 26.158 54.4389 26.4378C54.1601 26.7166 54 27.1035 54 27.5C54 27.8943 54.1601 28.2802 54.4389 28.5601C54.7187 28.8389 55.1057 29 55.5 29C55.8943 29 56.2813 28.8389 56.5601 28.5601C56.841 28.2802 57 27.8943 57 27.5C57 27.1035 56.841 26.7166 56.5601 26.4378" fill="#003B49"/>
<path fill-rule="evenodd" clip-rule="evenodd" d="M10.5601 56.4378C10.2813 56.158 9.89435 56 9.5 56C9.10565 56 8.71873 56.158 8.43887 56.4378C8.16007 56.7177 8 57.1035 8 57.5C8 57.8943 8.16007 58.2813 8.43887 58.5601C8.71873 58.8399 9.10565 59 9.5 59C9.89435 59 10.2813 58.8399 10.5601 58.5601C10.841 58.2813 11 57.8943 11 57.5C11 57.1035 10.841 56.7177 10.5601 56.4378" fill="#003B49"/>
<path fill-rule="evenodd" clip-rule="evenodd" d="M59.8539 0H30.1461C26.7572 0 24 2.72081 24 6.0649V22.2469C24 25.591 26.7572 28.3118 30.1461 28.3118H39.3435L48.435 34.7634C48.6567 34.9196 48.9191 35 49.1824 35C49.3833 35 49.5851 34.9545 49.7697 34.8598C50.1977 34.6419 50.4656 34.2053 50.4629 33.7284L50.4294 28.3118H52.0745C52.7821 28.3118 53.3549 27.7457 53.3549 27.0483C53.3549 26.3509 52.7821 25.7848 52.0745 25.7848H49.1408C48.7997 25.7848 48.473 25.9187 48.2323 26.158C47.9925 26.3964 47.8586 26.7197 47.8604 27.0563L47.8866 31.2612L40.5036 26.0232C40.2864 25.8687 40.0249 25.7848 39.7561 25.7848H30.1461C28.1689 25.7848 26.5609 24.198 26.5609 22.2469V6.0649C26.5609 4.11381 28.1689 2.52704 30.1461 2.52704H59.8539C61.8311 2.52704 63.4391 4.11381 63.4391 6.0649V22.2469C63.4391 24.198 61.8311 25.7848 59.8539 25.7848C59.1472 25.7848 58.5735 26.3509 58.5735 27.0483C58.5735 27.7457 59.1472 28.3118 59.8539 28.3118C63.2428 28.3118 66 25.591 66 22.2469V6.0649C66 2.72081 63.2428 0 59.8539 0" fill="#003B49"/>
<path fill-rule="evenodd" clip-rule="evenodd" d="M45.4995 5C42.4674 5 40 7.4867 40 10.5436C40 11.2627 40.5767 11.8449 41.2912 11.8449C42.0038 11.8449 42.5823 11.2627 42.5823 10.5436C42.5823 8.92226 43.8908 7.60258 45.4995 7.60258C47.1092 7.60258 48.4177 8.92226 48.4177 10.5436C48.4177 12.1658 47.1092 13.4855 45.4995 13.4855C44.7869 13.4855 44.2084 14.0676 44.2084 14.7868V16.6987C44.2084 17.4179 44.7869 18 45.4995 18C46.2131 18 46.7907 17.4179 46.7907 16.6987V15.9336C49.2042 15.3468 51 13.1526 51 10.5436C51 7.4867 48.5326 5 45.4995 5" fill="#003B49"/>
<path fill-rule="evenodd" clip-rule="evenodd" d="M46.5611 20.4389C46.2813 20.1601 45.8943 20 45.5 20C45.1057 20 44.7187 20.1601 44.4399 20.4389C44.1601 20.7187 44 21.1057 44 21.5C44 21.8954 44.1601 22.2813 44.4399 22.5622C44.7187 22.841 45.1057 23 45.5 23C45.8943 23 46.2813 22.841 46.5611 22.5622C46.8399 22.2813 47 21.8954 47 21.5C47 21.1057 46.8399 20.7187 46.5611 20.4389" fill="#003B49"/>
<path fill-rule="evenodd" clip-rule="evenodd" d="M32.7255 38H9.27447C8.57103 38 8 38.671 8 39.5C8 40.3279 8.57103 41 9.27447 41H32.7255C33.429 41 34 40.3279 34 39.5C34 38.671 33.429 38 32.7255 38" fill="#003B49"/>
<path fill-rule="evenodd" clip-rule="evenodd" d="M32.7255 44H9.27447C8.57103 44 8 44.6721 8 45.5C8 46.3279 8.57103 47 9.27447 47H32.7255C33.429 47 34 46.3279 34 45.5C34 44.6721 33.429 44 32.7255 44" fill="#003B49"/>
<path fill-rule="evenodd" clip-rule="evenodd" d="M32.7255 50H9.27447C8.57103 50 8 50.6721 8 51.5C8 52.3279 8.57103 53 9.27447 53H32.7255C33.429 53 34 52.3279 34 51.5C34 50.6721 33.429 50 32.7255 50" fill="#003B49"/>
</svg>
