<svg width="58" height="66" viewBox="0 0 58 66" fill="none" xmlns="http://www.w3.org/2000/svg">
<mask id="mask0" mask-type="alpha" maskUnits="userSpaceOnUse" x="0" y="0" width="58" height="66">
<path fill-rule="evenodd" clip-rule="evenodd" d="M0 0.067749H57.3112V65.9996H0V0.067749Z" fill="white"/>
</mask>
<g mask="url(#mask0)">
<path fill-rule="evenodd" clip-rule="evenodd" d="M56.4682 10.2613L47.9295 7.10596C47.2616 6.85824 46.5185 7.19818 46.2711 7.86632C46.0237 8.53265 46.3653 9.27311 47.0332 9.52084L54.73 12.3643V27.801C54.73 44.1781 44.2683 58.4187 28.6563 63.3633C13.0425 58.4187 2.58166 44.1781 2.58166 27.801V12.3643L28.6563 2.72826L36.1365 5.49393C36.8062 5.74076 37.5484 5.39991 37.7958 4.73358C38.0441 4.06544 37.7025 3.32498 37.0346 3.07906L29.104 0.14703C28.814 0.0403454 28.4968 0.0403454 28.2068 0.14703L0.842568 10.2613C0.335975 10.4485 -0.000244141 10.9303 -0.000244141 11.4692V27.801C-0.000244141 36.4036 2.71035 44.6057 7.83791 51.5222C12.9646 58.4386 20.0333 63.4257 28.2775 65.9436C28.4007 65.9807 28.5276 65.9997 28.6563 65.9997C28.7832 65.9997 28.91 65.9807 29.0342 65.9436C37.2783 63.4257 44.3462 58.4386 49.4738 51.5222C54.6013 44.6057 57.3119 36.4036 57.3119 27.801V11.4692C57.3119 10.9303 56.9748 10.4485 56.4682 10.2613" fill="#003B49"/>
</g>
<path fill-rule="evenodd" clip-rule="evenodd" d="M48.4135 27.2899C48.4135 40.3108 40.6132 51.6583 28.4995 56.3328C16.3859 51.6583 8.5865 40.3108 8.5865 27.2899V16.394L28.4995 8.67306L48.4135 16.394V27.2899ZM28.0311 6.08824L6.82434 14.3106C6.32774 14.5025 6 14.9794 6 15.5116V27.2899C6 34.2705 8.09171 40.9543 12.05 46.6153C15.9947 52.2574 21.5281 56.512 28.0502 58.9195C28.1954 58.9738 28.347 59 28.4995 59C28.6512 59 28.8037 58.9738 28.9489 58.9195C35.4719 56.512 41.0053 52.2574 44.9491 46.6153C48.9074 40.9543 51 34.2705 51 27.2899V15.5116C51 14.9794 50.6714 14.5034 50.1748 14.3106L28.968 6.08824C28.6666 5.97059 28.3325 5.97059 28.0311 6.08824V6.08824Z" fill="#003B49"/>
<path fill-rule="evenodd" clip-rule="evenodd" d="M33.3558 21.557V24.2172H23.6442V21.557C23.6442 18.8273 25.8225 16.6062 28.5004 16.6062C31.1775 16.6062 33.3558 18.8273 33.3558 21.557M37.4449 28.2404V40.9777C37.4449 41.7589 36.8205 42.3938 36.0553 42.3938H20.9456C20.1786 42.3938 19.5551 41.7589 19.5551 40.9777V28.2404C19.5551 27.4582 20.1786 26.8234 20.9456 26.8234H36.0553C36.8205 26.8234 37.4449 27.4582 37.4449 28.2404M21.0883 21.557V24.2172H20.9456C18.7692 24.2172 17 26.022 17 28.2404V40.9777C17 43.1961 18.7692 45 20.9456 45H36.0553C38.2308 45 40 43.1961 40 40.9777V28.2404C40 26.022 38.2308 24.2172 36.0553 24.2172H35.9117V21.557C35.9117 17.3902 32.5869 14 28.5004 14C24.4131 14 21.0883 17.3893 21.0883 21.557" fill="#003B49"/>
<path fill-rule="evenodd" clip-rule="evenodd" d="M29.0005 34.2551C28.2646 34.2551 27.6664 33.6656 27.6664 32.9406C27.6664 32.2165 28.2646 31.6271 29.0005 31.6271C29.7345 31.6271 30.3336 32.2165 30.3336 32.9406C30.3336 33.6656 29.7345 34.2551 29.0005 34.2551M29.0005 29C26.7947 29 25 30.7683 25 32.9406C25 34.6545 26.1141 36.1147 27.6664 36.657V37.6855C27.6664 38.4115 28.2637 39 29.0005 39C29.7363 39 30.3336 38.4115 30.3336 37.6855V36.657C31.885 36.1147 33 34.6545 33 32.9406C33 30.7683 31.2062 29 29.0005 29" fill="#003B49"/>
<path fill-rule="evenodd" clip-rule="evenodd" d="M42.4995 8C42.8943 8 43.2819 7.83994 43.5609 7.55985C43.8389 7.27869 44 6.8954 44 6.49947C44 6.10565 43.8389 5.71815 43.5609 5.43805C43.2819 5.16006 42.8943 5 42.4995 5C42.1057 5 41.7192 5.16006 41.4391 5.43805C41.1611 5.71815 41 6.10355 41 6.49947C41 6.8954 41.1611 7.2808 41.4391 7.55985C41.7192 7.83994 42.1057 8 42.4995 8" fill="#003B49"/>
</svg>
