<svg width="64" height="63" viewBox="0 0 64 63" fill="none" xmlns="http://www.w3.org/2000/svg">
<path fill-rule="evenodd" clip-rule="evenodd" d="M10.1254 21.7353C10.8633 21.7353 11.4983 21.1983 11.5884 20.4706L12.794 10.6063C12.8512 10.136 12.6695 9.6699 12.3034 9.35825C11.9388 9.04382 11.4382 8.92834 10.9677 9.04382L1.91677 11.2783C1.12736 11.473 0.649717 12.2536 0.849928 13.0216C1.05014 13.7896 1.85098 14.2543 2.64325 14.0609L7.15944 12.9464C3.98895 17.1009 1.94966 21.9343 1.19744 27.1391C0.255015 33.6699 1.48774 40.4553 4.67253 46.2417C4.93709 46.7259 5.44763 47 5.97247 47C6.207 47 6.44726 46.9457 6.66892 46.8303C7.38682 46.456 7.65711 45.5864 7.27384 44.888C2.02688 35.3506 2.96073 23.6553 9.28597 15.0056L8.65959 20.1297C8.56092 20.9172 9.14153 21.6323 9.94952 21.7256C10.0082 21.7325 10.0654 21.7353 10.1254 21.7353" fill="#003B49"/>
<mask id="mask0" mask-type="alpha" maskUnits="userSpaceOnUse" x="51" y="16" width="13" height="39">
<path fill-rule="evenodd" clip-rule="evenodd" d="M51.6496 16.5002H63.7725V54.5921H51.6496V16.5002Z" fill="white"/>
</mask>
<g mask="url(#mask0)">
<path fill-rule="evenodd" clip-rule="evenodd" d="M63.7264 50.5667C63.5242 49.7979 62.7139 49.3326 61.9166 49.5276L57.3709 50.6391C60.592 46.4675 62.6662 41.6134 63.4274 36.3846C64.3793 29.8452 63.1342 23.0522 59.9174 17.2593C59.5303 16.5587 58.6276 16.2969 57.9024 16.6701C57.1773 17.0462 56.9014 17.9154 57.2914 18.616C62.6056 28.1891 61.6407 39.9323 55.2042 48.6042L55.8398 43.4506C55.9366 42.6623 55.3516 41.9477 54.5354 41.853C53.7179 41.7611 52.9769 42.3224 52.8801 43.1108L51.6596 52.9875C51.6032 53.4569 51.7881 53.9235 52.1564 54.2355C52.4338 54.4681 52.7833 54.5921 53.1416 54.5921C53.2643 54.5921 53.3871 54.5781 53.5084 54.5489L62.6489 52.3134C63.4462 52.117 63.9301 51.337 63.7264 50.5667" fill="#003B49"/>
</g>
<path fill-rule="evenodd" clip-rule="evenodd" d="M16.9427 32.2855C17.1562 32.642 17.5143 32.892 17.9254 32.9716C18.02 32.9915 18.1159 33 18.2134 33C18.5285 33 18.8394 32.9006 19.0972 32.7102L25.5091 27.9685C26.1638 27.4841 26.2984 26.5664 25.8099 25.9172C25.3243 25.2681 24.3975 25.1345 23.7428 25.6189L20.1057 28.308C21.0297 24.6558 23.4936 21.5335 26.9946 19.772C27.7209 19.407 28.0146 18.5234 27.6435 17.8032C27.2725 17.0816 26.3844 16.7918 25.6567 17.1597C21.5024 19.2521 18.5371 22.9128 17.3395 27.2156L15.5518 24.2368C15.1335 23.5421 14.2267 23.3148 13.5248 23.7282C12.8243 24.143 12.5951 25.0422 13.0134 25.7368L16.9427 32.2855Z" fill="#003B49"/>
<path fill-rule="evenodd" clip-rule="evenodd" d="M51.5954 37.2336L47.6583 30.7122C47.4431 30.3585 47.0844 30.1081 46.674 30.0275C46.2622 29.9483 45.8361 30.0416 45.5003 30.2892L39.0753 35.0112C38.421 35.4936 38.2861 36.4074 38.7725 37.0539C39.2647 37.7004 40.1901 37.8334 40.8458 37.3524L44.5491 34.6293C43.6466 38.3158 41.1586 41.4704 37.6161 43.2401C36.8872 43.605 36.5945 44.4821 36.9647 45.2022C37.2258 45.7086 37.7467 46 38.2861 46C38.5114 46 38.7395 45.9505 38.9548 45.8444C43.1229 43.7607 46.0958 40.1109 47.2953 35.819L49.0515 38.7274C49.3284 39.1843 49.8205 39.439 50.3256 39.439C50.5824 39.439 50.8421 39.3739 51.0803 39.2339C51.7833 38.8208 52.0144 37.9253 51.5954 37.2336" fill="#003B49"/>
<path fill-rule="evenodd" clip-rule="evenodd" d="M24.5582 50.2789C24.8302 50.7425 25.3146 51 25.8161 51C26.0682 51 26.3246 50.9328 26.5597 50.7911L33.09 46.8652C33.4455 46.6506 33.6948 46.2944 33.777 45.8852C33.8563 45.476 33.7614 45.0497 33.5135 44.7149L28.7851 38.3081C28.3049 37.6543 27.387 37.5212 26.7396 38.0077C26.0937 38.4941 25.9591 39.4198 26.4422 40.0722L29.1463 43.7377C25.4719 42.8235 22.3328 40.3426 20.5707 36.8116C20.2066 36.0848 19.3284 35.7915 18.6088 36.1578C17.8877 36.5255 17.5974 37.4125 17.9614 38.1422C20.0423 42.3127 23.7026 45.2872 28.006 46.4861L25.0639 48.2559C24.3712 48.6737 24.1431 49.5793 24.5582 50.2789" fill="#003B49"/>
<path fill-rule="evenodd" clip-rule="evenodd" d="M45.6944 56.5497C35.9916 61.8718 24.5018 60.9595 15.8295 54.525L20.9277 55.1455C21.7162 55.2442 22.4297 54.6651 22.5228 53.8558C22.6146 53.0479 22.0556 52.3143 21.2684 52.2171L11.4071 51.0103C10.9385 50.9531 10.4726 51.1375 10.1597 51.5021C9.84817 51.8682 9.73274 52.3687 9.84817 52.8391L12.0802 61.889C12.2457 62.5567 12.827 63 13.4681 63C13.5863 63 13.7059 62.9871 13.8227 62.9557C14.5918 62.7555 15.0563 61.9519 14.8616 61.164L13.7351 56.5983C17.8988 59.7927 22.744 61.8475 27.966 62.6039C29.4012 62.8141 30.8516 62.9171 32.2993 62.9171C37.424 62.9171 42.5361 61.6259 47.0447 59.1536C47.7443 58.7689 48.0085 57.8752 47.6344 57.1574C47.2617 56.4382 46.3925 56.1651 45.6944 56.5497" fill="#003B49"/>
<mask id="mask1" mask-type="alpha" maskUnits="userSpaceOnUse" x="16" y="0" width="39" height="13">
<path fill-rule="evenodd" clip-rule="evenodd" d="M16.2911 0.0332031H54.3659V12.1545H16.2911V0.0332031Z" fill="white"/>
</mask>
<g mask="url(#mask1)">
<path fill-rule="evenodd" clip-rule="evenodd" d="M18.4074 6.53284C27.9972 1.19273 39.7668 2.15761 48.4416 8.61139L43.2239 7.96717C42.4342 7.8675 41.721 8.4525 41.6263 9.2715C41.5344 10.0862 42.0943 10.8286 42.8827 10.9254L52.758 12.1445C52.8165 12.1517 52.8722 12.1546 52.9279 12.1546C53.3388 12.1546 53.7344 11.9712 54.0088 11.6491C54.3208 11.2793 54.4378 10.7752 54.3222 10.2985L52.0853 1.15661C51.8903 0.360725 51.1103 -0.123164 50.34 0.0790587C49.5712 0.281281 49.1059 1.09161 49.3023 1.89039L50.4013 6.38695C46.2381 3.18895 41.4007 1.13206 36.19 0.376614C29.6408 -0.575275 22.845 0.681392 17.0479 3.90684C16.3487 4.29684 16.0869 5.19961 16.4629 5.92328C16.8362 6.64984 17.7082 6.92284 18.4074 6.53284" fill="#003B49"/>
</g>
<path fill-rule="evenodd" clip-rule="evenodd" d="M44.0369 26.1912C44.2964 26.7026 44.8099 27 45.3418 27C45.5645 27 45.7915 26.9483 46.0057 26.8377C46.7262 26.4642 47.0113 25.5721 46.644 24.8437C44.5532 20.6921 40.8978 17.7299 36.6113 16.5318L39.5545 14.7562C40.2496 14.3382 40.4765 13.4288 40.0638 12.7249C39.6496 12.021 38.7517 11.7897 38.0581 12.2092L31.519 16.1525C31.1616 16.3666 30.9133 16.7243 30.8325 17.1366C30.7516 17.5474 30.8467 17.9755 31.0935 18.3117L35.8283 24.7432C36.1176 25.1339 36.5588 25.3393 37.0042 25.3393C37.3077 25.3393 37.6141 25.2445 37.8779 25.0463C38.5248 24.555 38.6595 23.6284 38.1744 22.9705L35.468 19.2929C39.1304 20.2036 42.2666 22.6774 44.0369 26.1912" fill="#003B49"/>
</svg>
