<svg width="61" height="65" viewBox="0 0 61 65" fill="none" xmlns="http://www.w3.org/2000/svg">
<mask id="mask0" mask-type="alpha" maskUnits="userSpaceOnUse" x="0" y="0" width="61" height="65">
<path fill-rule="evenodd" clip-rule="evenodd" d="M0.00012207 0.393433H60.7269V65H0.00012207V0.393433Z" fill="white"/>
</mask>
<g mask="url(#mask0)">
<path fill-rule="evenodd" clip-rule="evenodd" d="M58.1411 37.1005C58.0302 37.5119 57.7654 37.8563 57.3959 38.0686C57.0258 38.2822 56.5946 38.3389 56.1815 38.229C55.7683 38.1184 55.4238 37.8542 55.2096 37.4849L36.5901 5.31202C36.3766 4.94277 36.3197 4.51335 36.4307 4.10122C36.5409 3.69048 36.8057 3.34612 37.1758 3.13245C37.4219 2.99069 37.6957 2.91809 37.973 2.91809C38.1116 2.91809 38.2523 2.93676 38.3896 2.97271C38.8027 3.08404 39.1472 3.3475 39.3607 3.71676L57.9817 35.889C58.1945 36.2582 58.2513 36.6884 58.1411 37.1005V37.1005ZM32.1288 47.3857C32.3402 47.5807 32.4442 47.8566 32.4123 48.1422C32.3804 48.4278 32.2189 48.6732 31.9693 48.8171L30.1352 49.8744L25.7792 45.5297L29.2937 44.7788L32.1288 47.3857ZM35.508 60.2322C35.402 61.0343 34.9382 61.7272 34.236 62.1317C33.2226 62.7153 31.9368 62.5466 31.1098 61.7217L18.3899 49.0342L23.0335 46.3602L34.7719 58.0685C35.3451 58.6404 35.6141 59.4294 35.508 60.2322V60.2322ZM11.8504 49.8868C10.1792 50.8487 8.03446 50.2761 7.06886 48.6089L3.00127 41.5806C2.53337 40.773 2.40998 39.8319 2.65121 38.9309C2.89382 38.0305 3.47263 37.2775 4.28227 36.8107L13.9459 31.2456L21.5134 44.321L11.8504 49.8868ZM49.5789 16.3247L50.1279 16.0087C51.3535 15.3027 52.9256 15.7231 53.6327 16.9456C54.3404 18.1675 53.9189 19.7358 52.6941 20.4411L52.1451 20.7571L49.6212 16.398L49.5789 16.3247ZM60.1721 34.6277L53.4094 22.9429L53.9584 22.6269C55.1369 21.9479 55.9805 20.8519 56.3333 19.5401C56.6847 18.229 56.5045 16.8599 55.8238 15.683C54.4187 13.2565 51.2966 12.4219 48.8629 13.8229L48.3139 14.1389L41.5519 2.45479C41.0001 1.50192 40.1094 0.820107 39.0439 0.535214C37.9792 0.251012 36.8667 0.396916 35.9108 0.947341C34.9556 1.49777 34.2721 2.38564 33.9865 3.44846C33.791 4.1766 33.7986 4.92686 33.9997 5.63356L27.524 12.9018C27.0595 13.4225 27.1067 14.2198 27.6286 14.6831C28.1513 15.1457 28.9512 15.0994 29.4157 14.5787L35.2446 8.03511L52.1811 37.2996L23.8764 43.3564L15.9603 29.6794L21.8523 23.066C22.3168 22.5446 22.2696 21.7473 21.7477 21.2847C21.2257 20.8214 20.4258 20.8685 19.962 21.3892L13.5986 28.5309L3.0179 34.6256C1.62253 35.4285 0.624346 36.7257 0.208437 38.2774C-0.208859 39.8291 0.00533462 41.4506 0.810119 42.8419L4.8784 49.8709C5.99373 51.7981 8.02476 52.8768 10.1105 52.8768C11.133 52.8768 12.1686 52.6175 13.1148 52.0719L16.1218 50.3397L29.3214 63.5064C30.3064 64.4883 31.6186 65 32.9446 65C33.8215 65 34.7032 64.776 35.5004 64.3175C36.8902 63.5174 37.8066 62.1483 38.0167 60.5613C38.226 58.9744 37.695 57.4157 36.5603 56.2838L31.9874 51.722L33.2344 51.0029C34.1882 50.4538 34.8051 49.512 34.9264 48.4202C35.0484 47.3283 34.6533 46.2752 33.8437 45.5297L32.3215 44.1302L53.6424 39.5677C54.1539 40.0919 54.8 40.4722 55.5271 40.6658C55.8827 40.7612 56.2439 40.8082 56.6022 40.8082C57.3183 40.8082 58.024 40.6215 58.6603 40.2551C59.6162 39.7046 60.299 38.8161 60.5846 37.7532C60.8702 36.6904 60.7239 35.5806 60.1721 34.6277V34.6277Z" fill="#003B49"/>
</g>
<path fill-rule="evenodd" clip-rule="evenodd" d="M24.4996 20C24.8942 20 25.2814 19.8397 25.561 19.561C25.8397 19.2814 26 18.8942 26 18.5004C26 18.105 25.8397 17.7186 25.561 17.4398C25.2814 17.1603 24.8959 17 24.4996 17C24.1058 17 23.7186 17.1603 23.439 17.4398C23.1603 17.7186 23 18.105 23 18.5004C23 18.8942 23.1603 19.2814 23.439 19.561C23.7186 19.8397 24.1058 20 24.4996 20" fill="#003B49"/>
</svg>
